<svg width="242" height="45" viewBox="0 0 242 45" fill="none" xmlns="http://www.w3.org/2000/svg">
<path d="M75.4217 35.4814V8.88144H86.3277C88.177 8.88144 89.735 9.17278 91.0017 9.75544C92.2683 10.3381 93.2183 11.1488 93.8517 12.1874C94.5103 13.2008 94.8397 14.3788 94.8397 15.7214C94.8397 17.0641 94.5483 18.1914 93.9657 19.1034C93.383 20.0154 92.6103 20.7248 91.6477 21.2314C90.7103 21.7128 89.6717 21.9914 88.5317 22.0674L89.1397 21.6494C90.3557 21.7001 91.4323 22.0294 92.3697 22.6374C93.3323 23.2201 94.0797 24.0054 94.6117 24.9934C95.169 25.9814 95.4477 27.0581 95.4477 28.2234C95.4477 29.6421 95.1057 30.8961 94.4217 31.9854C93.7377 33.0748 92.7497 33.9361 91.4577 34.5694C90.1657 35.1774 88.5823 35.4814 86.7077 35.4814H75.4217ZM80.5517 31.3014H85.8717C87.265 31.3014 88.3417 30.9848 89.1017 30.3514C89.8617 29.7181 90.2417 28.8061 90.2417 27.6154C90.2417 26.4248 89.849 25.5001 89.0637 24.8414C88.2783 24.1574 87.189 23.8154 85.7957 23.8154H80.5517V31.3014ZM80.5517 19.9774H85.4917C86.8343 19.9774 87.8477 19.6734 88.5317 19.0654C89.241 18.4574 89.5957 17.5961 89.5957 16.4814C89.5957 15.3921 89.241 14.5434 88.5317 13.9354C87.8477 13.3021 86.8217 12.9854 85.4537 12.9854H80.5517V19.9774ZM101.317 43.1574L105.687 33.3534H104.623L96.9086 16.6334H102.457L107.929 28.8694H108.043L112.945 16.6334H118.417L106.789 43.1574H101.317ZM128.87 35.4814C127.528 35.4814 126.35 35.2788 125.336 34.8734C124.348 34.4428 123.576 33.7461 123.018 32.7834C122.461 31.7954 122.182 30.4528 122.182 28.7554V20.7754H118.952V16.6334H122.182L122.752 11.5034H127.312V16.6334H132.328V20.7754H127.312V28.8314C127.312 29.7181 127.502 30.3388 127.882 30.6934C128.262 31.0481 128.908 31.2254 129.82 31.2254H132.214V35.4814H128.87ZM143.136 35.9374C141.211 35.9374 139.501 35.5321 138.006 34.7214C136.537 33.9108 135.384 32.7708 134.548 31.3014C133.712 29.8321 133.294 28.1474 133.294 26.2474C133.294 24.2714 133.7 22.5361 134.51 21.0414C135.346 19.5214 136.499 18.3308 137.968 17.4694C139.463 16.6081 141.198 16.1774 143.174 16.1774C145.049 16.1774 146.696 16.5828 148.114 17.3934C149.533 18.2041 150.648 19.3188 151.458 20.7374C152.269 22.1308 152.674 23.7141 152.674 25.4874C152.674 25.7408 152.674 26.0321 152.674 26.3614C152.674 26.6654 152.649 26.9821 152.598 27.3114H136.942V24.1574H147.468C147.392 22.9668 146.949 22.0168 146.138 21.3074C145.353 20.5981 144.365 20.2434 143.174 20.2434C142.288 20.2434 141.477 20.4461 140.742 20.8514C140.008 21.2314 139.425 21.8268 138.994 22.6374C138.564 23.4228 138.348 24.4234 138.348 25.6394V26.7414C138.348 27.7801 138.551 28.6794 138.956 29.4394C139.362 30.1741 139.919 30.7441 140.628 31.1494C141.363 31.5548 142.186 31.7574 143.098 31.7574C144.036 31.7574 144.821 31.5548 145.454 31.1494C146.088 30.7188 146.569 30.1741 146.898 29.5154H152.142C151.762 30.7061 151.154 31.7954 150.318 32.7834C149.482 33.7461 148.456 34.5188 147.24 35.1014C146.024 35.6588 144.656 35.9374 143.136 35.9374Z" fill="#485DB2"/>
<path d="M155.355 35.4814V8.88144H166.261C168.111 8.88144 169.669 9.17278 170.935 9.75544C172.202 10.3381 173.152 11.1488 173.785 12.1874C174.444 13.2008 174.773 14.3788 174.773 15.7214C174.773 17.0641 174.482 18.1914 173.899 19.1034C173.317 20.0154 172.544 20.7248 171.581 21.2314C170.644 21.7128 169.605 21.9914 168.465 22.0674L169.073 21.6494C170.289 21.7001 171.366 22.0294 172.303 22.6374C173.266 23.2201 174.013 24.0054 174.545 24.9934C175.103 25.9814 175.381 27.0581 175.381 28.2234C175.381 29.6421 175.039 30.8961 174.355 31.9854C173.671 33.0748 172.683 33.9361 171.391 34.5694C170.099 35.1774 168.516 35.4814 166.641 35.4814H155.355ZM160.485 31.3014H165.805C167.199 31.3014 168.275 30.9848 169.035 30.3514C169.795 29.7181 170.175 28.8061 170.175 27.6154C170.175 26.4248 169.783 25.5001 168.997 24.8414C168.212 24.1574 167.123 23.8154 165.729 23.8154H160.485V31.3014ZM160.485 19.9774H165.425C166.768 19.9774 167.781 19.6734 168.465 19.0654C169.175 18.4574 169.529 17.5961 169.529 16.4814C169.529 15.3921 169.175 14.5434 168.465 13.9354C167.781 13.3021 166.755 12.9854 165.387 12.9854H160.485V19.9774ZM178.21 35.4814V16.6334H182.618L183.036 20.6994H183.188C183.746 19.4328 184.354 18.4828 185.012 17.8494C185.671 17.1908 186.418 16.7474 187.254 16.5194C188.116 16.2914 189.078 16.1774 190.142 16.1774V21.6114H188.774C187.913 21.6114 187.14 21.7128 186.456 21.9154C185.772 22.0928 185.202 22.3968 184.746 22.8274C184.29 23.2328 183.936 23.7774 183.682 24.4614C183.454 25.1454 183.34 25.9688 183.34 26.9314V35.4814H178.21ZM201.027 35.9374C199.102 35.9374 197.392 35.5321 195.897 34.7214C194.428 33.9108 193.275 32.7708 192.439 31.3014C191.603 29.8321 191.185 28.1474 191.185 26.2474C191.185 24.2714 191.59 22.5361 192.401 21.0414C193.237 19.5214 194.39 18.3308 195.859 17.4694C197.354 16.6081 199.089 16.1774 201.065 16.1774C202.94 16.1774 204.586 16.5828 206.005 17.3934C207.424 18.2041 208.538 19.3188 209.349 20.7374C210.16 22.1308 210.565 23.7141 210.565 25.4874C210.565 25.7408 210.565 26.0321 210.565 26.3614C210.565 26.6654 210.54 26.9821 210.489 27.3114H194.833V24.1574H205.359C205.283 22.9668 204.84 22.0168 204.029 21.3074C203.244 20.5981 202.256 20.2434 201.065 20.2434C200.178 20.2434 199.368 20.4461 198.633 20.8514C197.898 21.2314 197.316 21.8268 196.885 22.6374C196.454 23.4228 196.239 24.4234 196.239 25.6394V26.7414C196.239 27.7801 196.442 28.6794 196.847 29.4394C197.252 30.1741 197.81 30.7441 198.519 31.1494C199.254 31.5548 200.077 31.7574 200.989 31.7574C201.926 31.7574 202.712 31.5548 203.345 31.1494C203.978 30.7188 204.46 30.1741 204.789 29.5154H210.033C209.653 30.7061 209.045 31.7954 208.209 32.7834C207.373 33.7461 206.347 34.5188 205.131 35.1014C203.915 35.6588 202.547 35.9374 201.027 35.9374ZM216.072 35.4814L211.056 16.6334H216.148L219.378 31.9474H219.34L222.95 16.6334H228.764L232.412 31.9094H232.374L235.566 16.6334H240.658L235.604 35.4814H229.6L225.838 20.2434H225.876L222.076 35.4814H216.072Z" fill="#FF7451"/>
<path d="M25.3635 44.441C25.0163 44.441 24.6518 44.4063 24.2873 44.3021C21.9092 43.7119 20.4511 41.2992 21.0413 38.9211L29.9287 3.37149C30.5362 0.993413 32.949 -0.447313 35.3271 0.125507C37.7052 0.73304 39.1459 3.14583 38.5557 5.52391L29.6683 41.0735C29.1649 43.087 27.3597 44.441 25.3635 44.441Z" fill="#485DB2"/>
<path d="M46.2669 35.5538C45.1213 35.5538 43.993 35.1198 43.1251 34.2519C41.3893 32.5161 41.3893 29.7041 43.1251 27.9683L48.8707 22.2227L43.1251 16.4771C41.3893 14.7413 41.3893 11.9293 43.1251 10.1935C44.8609 8.45765 47.673 8.45765 49.4088 10.1935L58.2962 19.0809C60.032 20.8167 60.032 23.6287 58.2962 25.3645L49.4088 34.2519C48.5409 35.1198 47.4126 35.5538 46.2669 35.5538Z" fill="#FF7451"/>
<path d="M13.3311 35.5538C12.1855 35.5538 11.0572 35.1198 10.1893 34.2519L1.30186 25.3645C-0.433955 23.6287 -0.433955 20.8167 1.30186 19.0809L10.1893 10.1935C11.9251 8.45765 14.7371 8.45765 16.4729 10.1935C18.2087 11.9293 18.2087 14.7413 16.4729 16.4771L10.7274 22.2227L16.4729 27.9683C18.2087 29.7041 18.2087 32.5161 16.4729 34.2519C15.605 35.1198 14.4767 35.5538 13.3311 35.5538Z" fill="#FF7451"/>
</svg>
